<svg width="120" height="76" viewBox="0 0 120 76" fill="none" xmlns="http://www.w3.org/2000/svg">
<path d="M49 38C49 21.9837 61.9837 9 78 9H80C96.0163 9 109 21.9837 109 38V38C109 54.0163 96.0163 67 80 67H78C61.9837 67 49 54.0163 49 38V38Z" fill="#C0C0C0" fill-opacity="0.6"/>
<path d="M55 38C55 24.7452 65.7452 14 79 14V14C92.2548 14 103 24.7452 103 38V38C103 51.2548 92.2548 62 79 62V62C65.7452 62 55 51.2548 55 38V38Z" fill="#1B0B0B"/>
<path d="M72.865 44.0527L74.1327 29.5626L79.5665 30.038C80.6797 30.1354 81.5967 30.4105 82.3175 30.8633C83.0431 31.3165 83.5687 31.9091 83.8944 32.641C84.2253 33.3687 84.3502 34.1947 84.2694 35.1192C84.1881 36.0485 83.9194 36.8377 83.4633 37.487C83.0124 38.1319 82.3886 38.6073 81.5919 38.9131C80.7956 39.2142 79.8408 39.316 78.7276 39.2186L74.8575 38.88L75.0481 36.7008L78.5645 37.0085C79.2155 37.0654 79.7563 37.0224 80.1871 36.8795C80.6182 36.7319 80.9481 36.4922 81.1768 36.1605C81.4106 35.8245 81.5499 35.3994 81.5949 34.8853C81.6399 34.3711 81.5769 33.9236 81.4058 33.5426C81.2352 33.157 80.9506 32.8517 80.552 32.6267C80.1538 32.397 79.6269 32.2534 78.9713 32.1961L76.5657 31.9856L75.4899 44.2824L72.865 44.0527ZM80.925 38.1418L83.9377 45.0215L81.0086 44.7652L78.0595 37.8911L80.925 38.1418Z" fill="white"/>
</svg>
